<svg width="222" height="68" viewBox="0 0 222 68" fill="none" xmlns="http://www.w3.org/2000/svg">
<path d="M37.556 0.259999C37.748 0.259999 37.904 0.331999 38.024 0.475998C38.168 0.595998 38.24 0.751998 38.24 0.943999C38.24 1.064 38.204 1.184 38.132 1.304C38.084 1.4 38 1.484 37.88 1.556C37.784 1.604 37.676 1.628 37.556 1.628C34.796 1.676 31.496 1.988 27.656 2.564C23.816 3.116 20.108 3.836 16.532 4.724C16.052 6.74 15.14 10.292 13.796 15.38C12.74 19.412 11.96 22.46 11.456 24.524C14.816 23.636 18.068 22.88 21.212 22.256C24.38 21.608 26.396 21.308 27.26 21.356C27.452 21.38 27.608 21.464 27.728 21.608C27.848 21.728 27.896 21.884 27.872 22.076C27.872 22.268 27.8 22.436 27.656 22.58C27.536 22.7 27.38 22.76 27.188 22.76C26.708 22.712 25.796 22.808 24.452 23.048C23.108 23.264 21.488 23.576 19.592 23.984C17.72 24.392 15.752 24.848 13.688 25.352C12.776 25.592 11.9 25.82 11.06 26.036C8.756 35.348 7.568 41.732 7.496 45.188C7.472 46.844 7.772 47.804 8.396 48.068C8.756 48.236 9.224 48.212 9.8 47.996C10.4 47.804 11.096 47.432 11.888 46.88C12.68 46.328 13.424 45.776 14.12 45.224C14.816 44.696 15.656 43.976 16.64 43.064C17.624 42.152 18.368 41.444 18.872 40.94C19.4 40.46 20.096 39.8 20.96 38.96C21.464 38.456 21.836 38.084 22.076 37.844L22.688 37.268C23.624 36.356 24.272 35.744 24.632 35.432C24.872 35.216 25.052 35.06 25.172 34.964C25.292 34.868 25.436 34.772 25.604 34.676C25.796 34.556 25.964 34.508 26.108 34.532C26.252 34.532 26.384 34.592 26.504 34.712C26.672 34.832 26.768 34.964 26.792 35.108C26.816 35.276 26.744 35.504 26.576 35.792C26.432 36.08 26.276 36.344 26.108 36.584C25.94 36.824 25.64 37.232 25.208 37.808C25.088 37.976 24.932 38.072 24.74 38.096C24.548 38.12 24.38 38.072 24.236 37.952C24.188 37.928 24.14 37.892 24.092 37.844C24.044 37.892 23.9 38.036 23.66 38.276L23.048 38.852C22.808 39.092 22.436 39.452 21.932 39.932C20.684 41.156 19.628 42.176 18.764 42.992C17.9 43.808 16.94 44.66 15.884 45.548C14.852 46.46 13.952 47.18 13.184 47.708C12.416 48.236 11.648 48.668 10.88 49.004C10.112 49.364 9.44 49.544 8.864 49.544C8.48 49.544 8.144 49.472 7.856 49.328C6.656 48.824 6.08 47.444 6.128 45.188C6.176 41.66 7.304 35.42 9.512 26.468C4.664 27.836 1.928 28.82 1.304 29.42C1.184 29.54 1.028 29.6 0.836 29.6C0.644 29.6 0.476 29.54 0.332 29.42C0.212 29.276 0.152 29.108 0.152 28.916C0.152 28.724 0.224 28.556 0.368 28.412C1.208 27.596 4.388 26.432 9.908 24.92C10.46 22.712 11.312 19.412 12.464 15.02C13.688 10.364 14.54 7.064 15.02 5.12C12.812 5.696 10.868 6.296 9.188 6.92C7.532 7.544 6.14 8.204 5.012 8.9C3.884 9.596 3.224 10.268 3.032 10.916C2.84 11.516 3.236 12.152 4.22 12.824C4.364 12.944 4.448 13.1 4.472 13.292C4.52 13.46 4.496 13.628 4.4 13.796C4.256 13.988 4.064 14.084 3.824 14.084C3.68 14.084 3.548 14.048 3.428 13.976C1.892 12.92 1.316 11.768 1.7 10.52C2.444 8.048 7.004 5.732 15.38 3.572C15.524 2.972 15.644 2.456 15.74 2.024C15.764 1.832 15.86 1.688 16.028 1.592C16.196 1.496 16.364 1.472 16.532 1.52C16.724 1.544 16.868 1.64 16.964 1.808C17.084 1.952 17.12 2.12 17.072 2.312C17.024 2.552 16.964 2.852 16.892 3.212C20.42 2.348 24.068 1.652 27.836 1.124C31.604 0.571998 34.844 0.283998 37.556 0.259999ZM44.0956 26.972C44.2876 26.9 44.4676 26.912 44.6356 27.008C44.8036 27.08 44.9116 27.212 44.9596 27.404C45.0316 27.572 45.0316 27.74 44.9596 27.908C42.3916 33.212 40.0996 35.864 38.0836 35.864C37.9636 35.864 37.8316 35.852 37.6876 35.828C36.0796 35.516 35.0836 33.356 34.6996 29.348C33.5236 30.932 32.4796 32.228 31.5676 33.236C30.7516 34.1 30.0556 34.4 29.4796 34.136C28.9036 33.92 28.6276 33.296 28.6516 32.264C28.6516 31.4 28.8436 30.368 29.2276 29.168C29.6116 27.968 30.1756 26.804 30.9196 25.676C31.6636 24.548 32.4676 23.84 33.3316 23.552C34.6036 23.096 35.7796 23.516 36.8596 24.812C36.9796 24.956 37.0276 25.124 37.0036 25.316C37.0036 25.508 36.9316 25.664 36.7876 25.784C36.6436 25.904 36.4756 25.964 36.2836 25.964C36.0916 25.94 35.9356 25.856 35.8156 25.712C34.9756 24.704 34.1236 24.512 33.2596 25.136C32.2756 25.832 31.4476 27.092 30.7756 28.916C30.1276 30.716 29.8756 32 30.0196 32.768C30.1636 32.648 30.3316 32.492 30.5236 32.3C31.4836 31.268 32.6596 29.792 34.0516 27.872C34.3636 27.44 34.5796 27.14 34.6996 26.972C34.8916 26.732 35.1436 26.66 35.4556 26.756C35.7676 26.828 35.9356 27.032 35.9596 27.368C36.0076 28.544 36.1036 29.588 36.2476 30.5C36.3916 31.412 36.5356 32.108 36.6796 32.588C36.8236 33.044 36.9916 33.428 37.1836 33.74C37.3756 34.052 37.5196 34.256 37.6156 34.352C37.7356 34.424 37.8556 34.46 37.9756 34.46C38.3116 34.532 38.7316 34.376 39.2356 33.992C39.7636 33.584 40.4236 32.816 41.2156 31.688C42.0316 30.536 42.8596 29.084 43.6996 27.332C43.7956 27.14 43.9276 27.02 44.0956 26.972ZM73.3302 13.76C73.4502 13.904 73.4982 14.072 73.4742 14.264C73.4502 14.456 73.3542 14.612 73.1862 14.732C72.8982 14.924 72.6222 14.912 72.3582 14.696C71.2062 14.288 63.1182 14.252 48.0942 14.588C46.5342 21.14 44.9502 28.244 43.3422 35.9C41.4222 45.14 40.2582 51.488 39.8502 54.944C39.8982 54.944 39.9462 54.956 39.9942 54.98C40.1862 55.028 40.3182 55.136 40.3902 55.304C40.4622 55.496 40.4622 55.676 40.3902 55.844C40.2702 56.228 40.1742 56.504 40.1022 56.672C40.0062 56.864 39.8742 57.044 39.7062 57.212C39.5382 57.404 39.3582 57.5 39.1662 57.5C39.0942 57.5 39.0102 57.488 38.9142 57.464C38.6022 57.368 38.4222 57.116 38.3742 56.708C38.3022 56.3 38.3262 55.748 38.4462 55.052C38.5422 54.044 38.7582 52.592 39.0942 50.696C39.6942 47.096 40.5942 42.416 41.7942 36.656C43.4022 28.88 45.0222 21.536 46.6542 14.624C45.0222 14.648 42.9942 14.696 40.5702 14.768C36.7302 14.864 34.4742 14.912 33.8022 14.912C33.6102 14.912 33.4542 14.852 33.3342 14.732C33.1902 14.588 33.1182 14.42 33.1182 14.228C33.1182 14.108 33.1542 14 33.2262 13.904C33.2742 13.784 33.3582 13.7 33.4782 13.652C33.5742 13.58 33.6822 13.544 33.8022 13.544C34.4742 13.544 36.7182 13.484 40.5342 13.364C42.9102 13.316 45.0702 13.268 47.0142 13.22C47.7822 10.052 48.4662 7.364 49.0662 5.156C49.1142 4.964 49.2222 4.82 49.3902 4.724C49.5582 4.628 49.7262 4.604 49.8942 4.652C50.0862 4.7 50.2302 4.808 50.3262 4.976C50.4222 5.144 50.4462 5.324 50.3982 5.516C49.8222 7.652 49.1622 10.208 48.4182 13.184C55.6182 12.992 61.0542 12.92 64.7262 12.968C68.3982 13.016 70.7022 13.1 71.6382 13.22C72.5982 13.316 73.1622 13.496 73.3302 13.76ZM80.3305 26.684C80.5225 26.684 80.6785 26.756 80.7985 26.9C80.9425 27.02 81.0145 27.176 81.0145 27.368C81.0385 27.56 80.9785 27.728 80.8345 27.872C79.7065 29.024 78.5545 29.828 77.3785 30.284C76.2265 30.74 75.1585 30.824 74.1745 30.536C73.0465 30.2 72.1705 29.432 71.5465 28.232C71.1865 29.576 70.7785 30.86 70.3225 32.084C69.6265 33.86 69.0265 35.048 68.5225 35.648C68.0185 36.248 67.5385 36.56 67.0825 36.584C66.2185 36.608 65.6185 35.792 65.2825 34.136C65.2105 33.728 65.1505 33.248 65.1025 32.696C63.6385 34.928 62.5465 36.38 61.8265 37.052C61.2745 37.58 60.7465 37.844 60.2425 37.844C59.9545 37.844 59.6905 37.76 59.4505 37.592C58.5385 37.016 58.1785 35.492 58.3705 33.02C58.5385 30.524 59.1985 27.656 60.3505 24.416C60.4225 24.248 60.5425 24.128 60.7105 24.056C60.8785 23.96 61.0465 23.948 61.2145 24.02C61.4065 24.068 61.5385 24.188 61.6105 24.38C61.7065 24.548 61.7185 24.716 61.6465 24.884C60.8545 27.092 60.3025 29.108 59.9905 30.932C59.7025 32.756 59.5945 34.088 59.6665 34.928C59.7625 35.768 59.9425 36.272 60.2065 36.44C60.3025 36.512 60.5305 36.38 60.8905 36.044C61.6345 35.348 63.0385 33.38 65.1025 30.14C65.2705 29.852 65.5225 29.756 65.8585 29.852C66.1945 29.948 66.3625 30.176 66.3625 30.536C66.3625 31.784 66.4585 32.9 66.6505 33.884C66.7705 34.508 66.9145 34.94 67.0825 35.18C67.5625 34.868 68.2225 33.632 69.0625 31.472C69.9025 29.288 70.4425 27.308 70.6825 25.532C70.7065 25.364 70.7785 25.232 70.8985 25.136C71.0425 25.016 71.1985 24.956 71.3665 24.956C71.7505 24.932 71.9785 25.112 72.0505 25.496C72.4585 27.584 73.2985 28.82 74.5705 29.204C75.2905 29.42 76.1185 29.324 77.0545 28.916C77.9905 28.508 78.9265 27.836 79.8625 26.9C79.9825 26.756 80.1385 26.684 80.3305 26.684ZM95.3647 26.684C95.5567 26.636 95.7247 26.66 95.8687 26.756C96.0367 26.852 96.1447 26.996 96.1927 27.188C96.2407 27.38 96.2167 27.56 96.1207 27.728C95.3287 29 94.5727 30.14 93.8527 31.148C93.1327 32.132 92.5087 32.936 91.9807 33.56C91.4767 34.16 90.9847 34.664 90.5047 35.072C90.0247 35.504 89.6407 35.804 89.3527 35.972C89.0647 36.164 88.7767 36.284 88.4887 36.332C88.2007 36.404 87.9967 36.428 87.8767 36.404C87.7807 36.404 87.6607 36.392 87.5167 36.368C86.3887 36.08 85.7527 34.796 85.6087 32.516C85.5847 32.012 85.5247 31.592 85.4287 31.256C85.3327 30.896 85.2487 30.668 85.1767 30.572C85.1047 30.452 85.0447 30.392 84.9967 30.392C84.9727 30.392 84.9607 30.392 84.9607 30.392C84.7687 30.392 84.5047 30.548 84.1687 30.86C83.8327 31.148 83.4247 31.628 82.9447 32.3C82.4647 32.972 81.9607 33.788 81.4327 34.748C80.9047 35.708 80.3167 36.92 79.6687 38.384C79.0447 39.848 78.4327 41.432 77.8327 43.136C77.7367 43.448 77.5207 43.604 77.1847 43.604C77.1367 43.604 77.0887 43.604 77.0407 43.604C76.9207 43.58 76.8247 43.532 76.7527 43.46C76.6567 43.388 76.5847 43.292 76.5367 43.172C76.4887 43.076 76.4767 42.98 76.5007 42.884C76.5487 41.9 77.1847 38.744 78.4087 33.416C79.6087 28.064 80.5927 23.768 81.3607 20.528C82.1527 17.264 82.7647 14.768 83.1967 13.04C84.0127 9.728 84.9487 6.908 86.0047 4.58C87.0847 2.228 88.0087 0.979999 88.7767 0.835998C89.1847 0.763999 89.4967 0.883999 89.7127 1.196C90.2407 1.916 89.9287 3.776 88.7767 6.776C87.6487 9.776 85.8847 13.448 83.4847 17.792C81.6367 25.4 80.2087 31.508 79.2007 36.116C80.2567 33.884 81.3007 32.12 82.3327 30.824C83.3647 29.504 84.3127 28.904 85.1767 29.024C86.2567 29.168 86.8567 30.296 86.9767 32.408C87.0967 34.016 87.3847 34.88 87.8407 35C87.9127 35.024 88.0087 35.024 88.1287 35C88.2727 34.976 88.5487 34.832 88.9567 34.568C89.3647 34.304 89.8087 33.92 90.2887 33.416C90.7687 32.888 91.4167 32.072 92.2327 30.968C93.0727 29.864 93.9727 28.532 94.9327 26.972C95.0287 26.828 95.1727 26.732 95.3647 26.684ZM88.5247 2.852C87.2047 4.748 85.9687 7.88 84.8167 12.248C86.9287 8 88.1647 4.868 88.5247 2.852ZM108.889 26.972C109.081 26.9 109.261 26.912 109.429 27.008C109.597 27.08 109.705 27.212 109.753 27.404C109.825 27.572 109.825 27.74 109.753 27.908C107.185 33.212 104.893 35.864 102.877 35.864C102.757 35.864 102.625 35.852 102.481 35.828C100.873 35.516 99.8766 33.356 99.4926 29.348C98.3166 30.932 97.2726 32.228 96.3606 33.236C95.5446 34.1 94.8486 34.4 94.2726 34.136C93.6966 33.92 93.4206 33.296 93.4446 32.264C93.4446 31.4 93.6366 30.368 94.0206 29.168C94.4046 27.968 94.9686 26.804 95.7126 25.676C96.4566 24.548 97.2606 23.84 98.1246 23.552C99.3966 23.096 100.573 23.516 101.653 24.812C101.773 24.956 101.821 25.124 101.797 25.316C101.797 25.508 101.725 25.664 101.581 25.784C101.437 25.904 101.269 25.964 101.077 25.964C100.885 25.94 100.729 25.856 100.609 25.712C99.7686 24.704 98.9166 24.512 98.0526 25.136C97.0686 25.832 96.2406 27.092 95.5686 28.916C94.9206 30.716 94.6686 32 94.8126 32.768C94.9566 32.648 95.1246 32.492 95.3166 32.3C96.2766 31.268 97.4526 29.792 98.8446 27.872C99.1566 27.44 99.3726 27.14 99.4926 26.972C99.6846 26.732 99.9366 26.66 100.249 26.756C100.561 26.828 100.729 27.032 100.753 27.368C100.801 28.544 100.897 29.588 101.041 30.5C101.185 31.412 101.329 32.108 101.473 32.588C101.617 33.044 101.785 33.428 101.977 33.74C102.169 34.052 102.313 34.256 102.409 34.352C102.529 34.424 102.649 34.46 102.769 34.46C103.105 34.532 103.525 34.376 104.029 33.992C104.557 33.584 105.217 32.816 106.009 31.688C106.825 30.536 107.653 29.084 108.493 27.332C108.589 27.14 108.721 27.02 108.889 26.972ZM138.123 13.76C138.243 13.904 138.291 14.072 138.267 14.264C138.243 14.456 138.147 14.612 137.979 14.732C137.691 14.924 137.415 14.912 137.151 14.696C135.999 14.288 127.911 14.252 112.887 14.588C111.327 21.14 109.743 28.244 108.135 35.9C106.215 45.14 105.051 51.488 104.643 54.944C104.691 54.944 104.739 54.956 104.787 54.98C104.979 55.028 105.111 55.136 105.183 55.304C105.255 55.496 105.255 55.676 105.183 55.844C105.063 56.228 104.967 56.504 104.895 56.672C104.799 56.864 104.667 57.044 104.499 57.212C104.331 57.404 104.151 57.5 103.959 57.5C103.887 57.5 103.803 57.488 103.707 57.464C103.395 57.368 103.215 57.116 103.167 56.708C103.095 56.3 103.119 55.748 103.239 55.052C103.335 54.044 103.551 52.592 103.887 50.696C104.487 47.096 105.387 42.416 106.587 36.656C108.195 28.88 109.815 21.536 111.447 14.624C109.815 14.648 107.787 14.696 105.363 14.768C101.523 14.864 99.2671 14.912 98.5951 14.912C98.4031 14.912 98.2471 14.852 98.1271 14.732C97.9831 14.588 97.9111 14.42 97.9111 14.228C97.9111 14.108 97.9471 14 98.0191 13.904C98.0671 13.784 98.1511 13.7 98.2711 13.652C98.3671 13.58 98.4751 13.544 98.5951 13.544C99.2671 13.544 101.511 13.484 105.327 13.364C107.703 13.316 109.863 13.268 111.807 13.22C112.575 10.052 113.259 7.364 113.859 5.156C113.907 4.964 114.015 4.82 114.183 4.724C114.351 4.628 114.519 4.604 114.687 4.652C114.879 4.7 115.023 4.808 115.119 4.976C115.215 5.144 115.239 5.324 115.191 5.516C114.615 7.652 113.955 10.208 113.211 13.184C120.411 12.992 125.847 12.92 129.519 12.968C133.191 13.016 135.495 13.1 136.431 13.22C137.391 13.316 137.955 13.496 138.123 13.76ZM140.731 26.792C140.923 26.816 141.067 26.912 141.163 27.08C141.283 27.224 141.319 27.392 141.271 27.584C141.223 27.776 141.127 27.92 140.983 28.016C136.735 30.776 133.255 33.524 130.543 36.26C129.127 44.732 127.579 51.608 125.899 56.888C123.907 63.104 121.975 66.476 120.103 67.004C119.935 67.052 119.755 67.076 119.563 67.076C119.011 67.076 118.531 66.836 118.123 66.356C117.451 65.492 117.091 64.064 117.043 62.072C116.971 60.08 117.283 57.728 117.979 55.016C118.651 52.304 119.635 49.688 120.931 47.168C123.211 42.824 125.995 38.96 129.283 35.576C129.643 33.32 130.003 30.956 130.363 28.484C129.619 29.612 128.923 30.56 128.275 31.328C127.219 32.624 126.211 32.984 125.251 32.408C124.459 31.928 124.039 30.932 123.991 29.42C123.943 27.884 124.291 26.216 125.035 24.416C125.107 24.248 125.227 24.128 125.395 24.056C125.587 23.984 125.767 23.984 125.935 24.056C126.103 24.128 126.223 24.248 126.295 24.416C126.391 24.584 126.403 24.764 126.331 24.956C125.683 26.708 125.359 28.136 125.359 29.24C125.383 30.344 125.587 31.004 125.971 31.22C126.235 31.388 126.643 31.136 127.195 30.464C128.395 29.024 129.631 27.2 130.903 24.992C131.095 24.656 131.371 24.56 131.731 24.704C132.091 24.824 132.247 25.064 132.199 25.424C131.791 28.424 131.371 31.268 130.939 33.956C133.411 31.652 136.507 29.288 140.227 26.864C140.371 26.768 140.539 26.744 140.731 26.792ZM124.567 56.492C126.103 51.692 127.531 45.56 128.851 38.096C126.259 40.976 124.027 44.216 122.155 47.816C121.123 49.784 120.307 51.788 119.707 53.828C119.083 55.892 118.699 57.692 118.555 59.228C118.411 60.764 118.399 62.084 118.519 63.188C118.639 64.292 118.867 65.048 119.203 65.456C119.371 65.648 119.539 65.72 119.707 65.672C119.827 65.648 119.959 65.588 120.103 65.492C120.247 65.396 120.487 65.144 120.823 64.736C121.159 64.352 121.495 63.848 121.831 63.224C122.167 62.624 122.587 61.736 123.091 60.56C123.595 59.384 124.087 58.028 124.567 56.492ZM152.048 27.008C152.24 26.984 152.408 27.032 152.552 27.152C152.72 27.272 152.816 27.428 152.84 27.62C152.864 27.812 152.816 27.98 152.696 28.124C151.712 29.396 150.536 30.392 149.168 31.112C147.8 31.832 146.516 32.06 145.316 31.796C144.98 32.612 144.512 33.26 143.912 33.74C143.312 34.196 142.688 34.424 142.04 34.424H142.004C141.356 34.4 140.78 34.184 140.276 33.776C139.796 33.344 139.46 32.756 139.268 32.012C138.956 30.836 139.016 29.72 139.448 28.664C139.856 27.584 140.456 26.792 141.248 26.288C141.416 26.168 141.608 26.144 141.824 26.216C142.04 25.688 142.34 25.28 142.724 24.992C143.132 24.704 143.552 24.596 143.984 24.668C144.224 24.716 144.44 24.824 144.632 24.992C144.848 25.136 145.052 25.376 145.244 25.712C145.46 26.048 145.616 26.564 145.712 27.26C145.808 27.956 145.832 28.784 145.784 29.744C145.76 29.984 145.724 30.224 145.676 30.464C146.588 30.656 147.596 30.428 148.7 29.78C149.828 29.132 150.788 28.292 151.58 27.26C151.7 27.116 151.856 27.032 152.048 27.008ZM142.04 33.02C142.376 33.02 142.724 32.864 143.084 32.552C143.468 32.24 143.78 31.82 144.02 31.292C142.46 30.428 141.644 29.252 141.572 27.764C141.092 28.22 140.756 28.832 140.564 29.6C140.396 30.368 140.408 31.04 140.6 31.616C140.864 32.552 141.344 33.02 142.04 33.02ZM144.38 29.672C144.428 29.096 144.428 28.604 144.38 28.196C144.356 27.764 144.32 27.416 144.272 27.152C144.224 26.888 144.164 26.672 144.092 26.504C144.02 26.336 143.948 26.216 143.876 26.144C143.828 26.072 143.792 26.036 143.768 26.036H143.732C143.636 26.036 143.516 26.12 143.372 26.288C143.228 26.432 143.12 26.636 143.048 26.9C142.904 27.404 142.928 27.92 143.12 28.448C143.312 28.976 143.732 29.456 144.38 29.888C144.38 29.816 144.38 29.744 144.38 29.672ZM164.876 27.152C165.068 27.104 165.236 27.128 165.38 27.224C165.548 27.32 165.656 27.464 165.704 27.656C165.752 27.848 165.728 28.016 165.632 28.16C165.344 28.616 165.032 29.108 164.696 29.636C164.36 30.14 163.856 30.836 163.184 31.724C162.536 32.612 161.912 33.392 161.312 34.064C160.712 34.712 160.064 35.288 159.368 35.792C158.672 36.296 158.072 36.548 157.568 36.548C157.376 36.548 157.208 36.512 157.064 36.44C155.912 36.008 155.588 34.172 156.092 30.932C155.3 32.012 154.58 32.828 153.932 33.38C152.996 34.172 152.18 34.268 151.484 33.668C150.836 33.14 150.548 32.204 150.62 30.86C150.668 29.516 151.052 28.22 151.772 26.972C151.868 26.804 152.012 26.696 152.204 26.648C152.396 26.6 152.576 26.624 152.744 26.72C152.912 26.816 153.02 26.96 153.068 27.152C153.116 27.32 153.092 27.488 152.996 27.656C152.588 28.328 152.3 29.036 152.132 29.78C151.988 30.524 151.94 31.148 151.988 31.652C152.06 32.132 152.18 32.444 152.348 32.588C152.468 32.708 152.696 32.624 153.032 32.336C153.656 31.808 154.436 30.86 155.372 29.492C155.54 29.276 155.66 29.12 155.732 29.024C155.828 28.904 155.936 28.772 156.056 28.628C156.176 28.46 156.272 28.352 156.344 28.304C156.416 28.256 156.5 28.208 156.596 28.16C156.692 28.088 156.788 28.064 156.884 28.088C156.98 28.088 157.088 28.112 157.208 28.16C157.52 28.28 157.688 28.556 157.712 28.988C157.736 29.396 157.676 29.936 157.532 30.608C157.268 31.928 157.16 32.936 157.208 33.632C157.28 34.328 157.34 34.76 157.388 34.928C157.436 35.072 157.496 35.144 157.568 35.144C157.64 35.192 157.76 35.168 157.928 35.072C158.12 35 158.336 34.868 158.576 34.676C158.84 34.484 159.128 34.244 159.44 33.956C159.752 33.644 160.1 33.272 160.484 32.84C160.892 32.408 161.3 31.94 161.708 31.436C162.116 30.908 162.56 30.308 163.04 29.636C163.52 28.94 163.988 28.208 164.444 27.44C164.54 27.272 164.684 27.176 164.876 27.152ZM185.577 1.268C186.081 2.012 185.829 3.776 184.821 6.56C183.837 9.32 182.229 12.476 179.997 16.028C179.973 16.052 179.949 16.076 179.925 16.1C178.413 22.148 176.961 28.448 175.569 35C174.201 41.576 173.325 46.256 172.941 49.04C172.965 49.04 172.989 49.04 173.013 49.04C173.205 49.112 173.349 49.232 173.445 49.4C173.517 49.568 173.517 49.748 173.445 49.94C173.301 50.348 173.193 50.648 173.121 50.84C173.025 51.056 172.893 51.26 172.725 51.452C172.557 51.644 172.377 51.74 172.185 51.74C172.113 51.74 172.029 51.728 171.933 51.704C171.597 51.584 171.417 51.248 171.393 50.696C171.369 50.168 171.537 48.848 171.897 46.736C172.329 44.144 172.977 40.76 173.841 36.584C175.833 27.08 177.813 18.608 179.781 11.168C179.949 10.544 180.129 9.896 180.321 9.224C180.513 8.528 180.789 7.664 181.149 6.632C181.509 5.6 181.857 4.7 182.193 3.932C182.553 3.14 182.949 2.444 183.381 1.844C183.813 1.22 184.221 0.883999 184.605 0.835998C185.013 0.763999 185.337 0.907999 185.577 1.268ZM181.185 11.276C183.105 7.652 184.185 4.808 184.425 2.744C183.369 4.328 182.289 7.172 181.185 11.276ZM193.005 27.008C193.197 26.984 193.365 27.032 193.509 27.152C193.677 27.272 193.773 27.428 193.797 27.62C193.821 27.812 193.773 27.98 193.653 28.124C192.669 29.396 191.493 30.392 190.125 31.112C188.757 31.832 187.473 32.06 186.273 31.796C185.937 32.612 185.469 33.26 184.869 33.74C184.269 34.196 183.645 34.424 182.997 34.424H182.961C182.313 34.4 181.737 34.184 181.233 33.776C180.753 33.344 180.417 32.756 180.225 32.012C179.913 30.836 179.973 29.72 180.405 28.664C180.813 27.584 181.413 26.792 182.205 26.288C182.373 26.168 182.565 26.144 182.781 26.216C182.997 25.688 183.297 25.28 183.681 24.992C184.089 24.704 184.509 24.596 184.941 24.668C185.181 24.716 185.397 24.824 185.589 24.992C185.805 25.136 186.009 25.376 186.201 25.712C186.417 26.048 186.573 26.564 186.669 27.26C186.765 27.956 186.789 28.784 186.741 29.744C186.717 29.984 186.681 30.224 186.633 30.464C187.545 30.656 188.553 30.428 189.657 29.78C190.785 29.132 191.745 28.292 192.537 27.26C192.657 27.116 192.813 27.032 193.005 27.008ZM182.997 33.02C183.333 33.02 183.681 32.864 184.041 32.552C184.425 32.24 184.737 31.82 184.977 31.292C183.417 30.428 182.601 29.252 182.529 27.764C182.049 28.22 181.713 28.832 181.521 29.6C181.353 30.368 181.365 31.04 181.557 31.616C181.821 32.552 182.301 33.02 182.997 33.02ZM185.337 29.672C185.385 29.096 185.385 28.604 185.337 28.196C185.313 27.764 185.277 27.416 185.229 27.152C185.181 26.888 185.121 26.672 185.049 26.504C184.977 26.336 184.905 26.216 184.833 26.144C184.785 26.072 184.749 26.036 184.725 26.036H184.689C184.593 26.036 184.473 26.12 184.329 26.288C184.185 26.432 184.077 26.636 184.005 26.9C183.861 27.404 183.885 27.92 184.077 28.448C184.269 28.976 184.689 29.456 185.337 29.888C185.337 29.816 185.337 29.744 185.337 29.672ZM209.366 27.008C209.558 26.984 209.726 27.032 209.87 27.152C210.038 27.272 210.122 27.428 210.122 27.62C210.146 27.812 210.098 27.98 209.978 28.124C209.066 29.18 208.022 29.948 206.846 30.428C205.67 30.884 204.554 30.968 203.498 30.68C202.274 30.368 201.326 29.612 200.654 28.412C200.054 30.5 199.142 32.552 197.918 34.568C197.102 35.936 196.274 37.064 195.434 37.952C194.594 38.864 193.838 39.428 193.166 39.644C192.926 39.716 192.698 39.752 192.482 39.752C192.05 39.752 191.69 39.608 191.402 39.32C190.01 37.904 190.706 33.032 193.49 24.704C193.538 24.536 193.646 24.416 193.814 24.344C194.006 24.248 194.186 24.236 194.354 24.308C194.546 24.356 194.678 24.464 194.75 24.632C194.846 24.8 194.858 24.98 194.786 25.172C194.09 27.284 193.526 29.18 193.094 30.86C192.662 32.516 192.374 33.788 192.23 34.676C192.11 35.54 192.062 36.272 192.086 36.872C192.11 37.472 192.146 37.844 192.194 37.988C192.242 38.156 192.302 38.264 192.374 38.312C192.446 38.384 192.566 38.384 192.734 38.312C193.406 38.096 194.246 37.34 195.254 36.044C196.262 34.748 197.21 33.152 198.098 31.256C198.986 29.336 199.55 27.524 199.79 25.82C199.814 25.652 199.886 25.52 200.006 25.424C200.15 25.304 200.306 25.232 200.474 25.208C200.858 25.208 201.086 25.4 201.158 25.784C201.542 27.8 202.442 28.988 203.858 29.348C204.65 29.564 205.502 29.48 206.414 29.096C207.35 28.712 208.178 28.088 208.898 27.224C209.042 27.08 209.198 27.008 209.366 27.008ZM220.442 26.864C220.634 26.816 220.802 26.852 220.946 26.972C221.114 27.068 221.21 27.212 221.234 27.404C221.258 27.596 221.222 27.764 221.126 27.908C218.414 31.7 215.942 34.388 213.71 35.972C212.822 36.596 211.946 36.908 211.082 36.908C210.41 36.908 209.822 36.728 209.318 36.368C209.03 36.152 208.778 35.864 208.562 35.504C208.322 35.144 208.118 34.64 207.95 33.992C207.782 33.344 207.758 32.492 207.878 31.436C207.974 30.38 208.238 29.18 208.67 27.836V27.8C209.342 25.616 210.158 23.888 211.118 22.616C212.078 21.344 212.942 20.696 213.71 20.672C214.262 20.648 214.622 20.888 214.79 21.392C215.054 22.088 214.742 23.072 213.854 24.344C212.966 25.616 211.658 26.984 209.93 28.448C209.642 29.384 209.438 30.248 209.318 31.04C209.198 31.832 209.15 32.468 209.174 32.948C209.222 33.404 209.306 33.812 209.426 34.172C209.57 34.508 209.69 34.748 209.786 34.892C209.906 35.036 210.026 35.156 210.146 35.252C210.866 35.78 211.79 35.636 212.918 34.82C215.03 33.332 217.382 30.764 219.974 27.116C220.094 26.972 220.25 26.888 220.442 26.864ZM213.458 22.184C212.618 22.712 211.79 23.852 210.974 25.604C212.366 24.212 213.194 23.072 213.458 22.184Z" fill="#313840"/>
</svg>
